<svg xmlns="http://www.w3.org/2000/svg" viewBox="0 0 32 32" balloon-color="green" class="glovo-logo-balloon header-logo__balloon" style="max-width:32px;" data-v-604cc6d0="" data-v-94e22206=""><path fill="#00A082" d="M7 10.3574C7 5.19772 11.2683 1 16.5147 1c5.2464 0 9.5146 4.19772 9.485 9.3574 0 1.9531-.5928 3.8479-1.7784 5.4512l-.2372.3498-4.95 6.8796s-.6224.962-1.9266.962h-1.1856c-1.3339 0-1.9267-.962-1.9267-.962l-4.94999-6.8796-.26677-.3498C7.62245 14.2053 7 12.3105 7 10.3574Zm13.1605 3.09.2667-.3498c.5929-.8162.9189-1.7491.9189-2.7693 0-2.62361-2.1638-4.75162-4.8314-4.75162-2.6677 0-4.8315 2.12801-4.8315 4.75162 0 .9911.3261 1.9531.9189 2.7693l.2668.379 3.6458 5.043 3.6458-5.0722ZM16.5 26c-1.4326 0-2.5 1.1143-2.5 2.5143 0 1.3428 1.0674 2.4571 2.4719 2.4857C17.9326 31 19 29.8857 19 28.5143v-.0286C19 27.1143 17.9326 26 16.5 26Z" class="glovo-logo-balloon__path--green" data-v-604cc6d0=""></path></svg>