<svg width="140" height="141" viewBox="0 0 140 141" fill="none" xmlns="http://www.w3.org/2000/svg">
<path fill-rule="evenodd" clip-rule="evenodd" d="M56.7227 136.116C41.3352 129.789 30.1649 111.374 24.8772 91.8223C19.5965 72.2283 20.2122 51.5224 28.8893 40.3111C37.5811 29.1244 54.326 27.4739 67.3499 29.1434C80.3743 30.8129 89.6624 35.7773 103.437 44.1174C117.205 52.4991 135.451 64.2988 137.547 79.3514C139.62 94.4211 125.507 112.736 108.633 124.747C91.7728 136.785 72.1249 142.469 56.7227 136.116Z" fill="#FFF3DA"/>
<path fill-rule="evenodd" clip-rule="evenodd" d="M80.1707 60.2425C85.2959 81.4754 72.2376 102.842 51.0055 107.967C29.7727 113.093 8.40506 100.035 3.27987 78.8024C-1.84533 57.5696 11.2129 36.2026 32.4458 31.0774C53.6779 25.9524 75.0455 39.0097 80.1707 60.2425Z" fill="white" stroke="#1A1A1A" stroke-width="2.19446"/>
<path fill-rule="evenodd" clip-rule="evenodd" d="M60.0622 101.699L57.4259 102.363C55.9788 102.741 54.4833 101.871 54.1261 100.391L54.1135 100.339C53.7363 98.8921 54.6048 97.396 56.0519 97.0187L56.1048 97.0059C57.0233 96.7563 57.5847 95.8377 57.355 94.8864L57.17 94.12C56.8249 92.8058 57.614 91.4408 58.9345 91.122L58.9882 91.1091C60.6987 90.6682 61.7285 88.9095 61.2874 87.1981L58.9039 77.9031C58.5075 76.3767 56.9721 75.4609 55.4467 75.8579L55.393 75.8708C53.8675 76.267 52.9515 77.8017 53.3479 79.3281L53.6039 80.2731C53.9172 81.4551 53.2019 82.6625 51.9926 82.9824L51.9398 82.9951C50.7572 83.3094 49.5505 82.5938 49.2307 81.3846L49.1159 80.9089C48.7131 79.3561 47.1184 78.4267 45.5592 78.803L38.1605 80.7008C36.6077 81.1036 35.6782 82.6983 36.081 84.2511L39.1998 96.361C39.5961 97.8866 38.6802 99.422 37.1803 99.8121L35.1526 100.329C33.6527 100.719 32.7369 102.255 33.1333 103.781L34.2448 108.155C39.6752 109.221 45.4186 109.148 51.1259 107.771C55.6441 106.68 59.7861 104.842 63.4577 102.446C62.5537 101.713 61.2978 101.373 60.0622 101.699Z" fill="#FFC244" stroke="#1A1A1A" stroke-width="2.19446"/>
<path fill-rule="evenodd" clip-rule="evenodd" d="M51.9974 31.3348L41.9424 33.9297C40.5217 34.3006 39.6661 35.7376 40.0433 37.1847L41.9985 44.8213C42.3694 46.242 43.8064 47.0976 45.2335 46.7532L59.0011 43.2062C60.2368 42.88 61.4834 43.6418 61.8032 44.851L61.8413 45.0088C62.1229 46.0595 61.4677 47.1685 60.4107 47.4236L50.8048 49.9101C49.4635 50.2618 48.6487 51.6331 48.9996 52.9746L49.0124 53.0275C49.3584 54.3415 48.5564 55.6537 47.2679 55.9927L45.953 56.338C45.4245 56.4656 44.906 56.1713 44.7786 55.6435L44.5934 54.8764C44.3248 53.8793 43.3078 53.2578 42.31 53.5267L38.386 54.5298C37.3889 54.7984 36.7673 55.8146 37.0353 56.8126L37.0419 56.8398C37.2921 57.7574 36.7108 58.7087 35.7922 58.9584L32.3695 59.8405C31.1082 60.173 30.3264 61.4524 30.6654 62.7409L32.5504 70.0868C32.883 71.3489 34.1624 72.1307 35.4245 71.7981L38.6878 70.9545C39.7121 70.6793 40.3071 69.6687 40.0584 68.6381L40.052 68.6116C39.8606 67.8188 40.3147 67.0389 41.1011 66.8211L49.5512 64.6408C50.8135 64.3089 52.1183 65.0838 52.4509 66.3459L53.1096 68.9555C53.467 70.3235 54.871 71.1584 56.239 70.801L62.4756 69.1829C63.8426 68.825 65.2148 69.6404 65.5722 71.0084L65.585 71.0612C65.9183 72.3231 67.1904 73.078 68.4262 72.7525L70.0583 72.3306C70.904 72.1265 71.7495 72.6207 71.9809 73.4598L72.0255 73.6448C72.3637 74.9335 73.6696 75.709 74.9645 75.3964L81.1748 73.7855C81.6926 69.3266 81.4138 64.6955 80.2977 60.0717C76.8344 45.6118 65.3702 35.0696 51.9974 31.3348Z" fill="#FFC244" stroke="#1A1A1A" stroke-width="2.19446"/>
<path fill-rule="evenodd" clip-rule="evenodd" d="M21.0328 100.914L21.0456 100.967C21.3973 102.308 22.7686 103.123 24.1094 102.772L24.1631 102.76C25.5034 102.407 26.3191 101.036 25.9674 99.6947L24.1715 92.718C23.7306 91.0074 22.0047 89.9977 20.2941 90.4386L20.2405 90.4516C19.2435 90.7202 18.2265 90.0987 17.9841 89.0945L17.5048 87.2246C17.3326 86.5111 17.7536 85.8222 18.4345 85.6307L18.4609 85.6243C19.8279 85.2664 20.6635 83.8621 20.3054 82.4943L17.4681 71.4351C17.0462 69.803 15.3805 68.8076 13.7482 69.2287L13.6954 69.2415C12.2747 69.6124 10.8379 68.7575 10.467 67.3368L10.4542 67.284C10.0706 65.8105 10.96 64.2814 12.4335 63.8977L12.6713 63.8403C14.779 63.3036 16.0487 61.1522 15.5056 59.018L15.4992 58.9916L15.6578 58.9533C18.0298 58.3528 19.4333 55.9445 18.8329 53.5733L18.8202 53.5205L20.9015 52.9901C22.4014 52.6001 23.2908 51.071 22.9064 49.5977L21.5132 44.1737C21.1242 42.6744 19.6215 41.7786 18.1216 42.1687L18.0688 42.1814C16.9652 42.4758 15.8242 41.8003 15.5227 40.6706L15.3441 39.9306C4.92343 49.3528 -0.146516 64.0266 3.37403 78.6117C5.51075 87.4638 10.4668 94.9074 17.0561 100.196L19.0053 99.6973C19.9038 99.4804 20.8159 100.015 21.0328 100.914Z" fill="#FFC244" stroke="#1A1A1A" stroke-width="2.19446"/>
<path fill-rule="evenodd" clip-rule="evenodd" d="M16.958 11.7467C16.7247 11.2437 16.1069 11.0013 15.5774 11.2409C15.0752 11.474 14.832 12.0921 15.0725 12.6213L32.091 47.9119L33.9253 46.9378L16.958 11.7467Z" fill="white"/>
<path fill-rule="evenodd" clip-rule="evenodd" d="M17.1185 10.7743C16.7913 10.0689 15.9249 9.72892 15.1824 10.065C14.4781 10.3919 14.1371 11.2586 14.4742 12.0008L31.8658 48.065L34.4421 46.7042L17.1185 10.7743Z" fill="#FFC333" stroke="#1A1A1A" stroke-width="2.19446"/>
<path d="M36.258 45.8352L29.8101 49.1138" stroke="#1C1C1B" stroke-width="1.99257" stroke-linecap="round" stroke-linejoin="round"/>
<path fill-rule="evenodd" clip-rule="evenodd" d="M50.1104 17.7256L22.4812 30.5745L15.0822 14.6324L42.7178 1.80995L40.7864 12.3423L50.1104 17.7256Z" fill="white" stroke="#1A1A1A" stroke-width="2.19446" stroke-linejoin="round"/>
<path fill-rule="evenodd" clip-rule="evenodd" d="M28.863 11.5522C26.929 12.3967 25.9015 14.5066 26.588 16.2618C26.8474 16.9467 27.3406 17.4878 28.0008 17.8491L28.1338 17.9211L30.9198 19.4881C30.9198 19.4881 31.2888 19.713 31.7725 19.5018L31.9058 19.4382L32.095 19.3611L32.2007 19.3056C32.6844 19.0944 32.7715 18.6666 32.7715 18.6666L33.6757 15.5386L33.7324 15.3885C33.96 14.6533 33.9227 13.9085 33.6635 13.2243C32.9821 11.4939 30.803 10.7331 28.863 11.5522ZM31.9691 15.0818L31.9176 15.2574L31.2536 17.5659L29.1991 16.421L29.0339 16.3308C28.7033 16.1502 28.4402 15.8707 28.3105 15.5282C27.948 14.6284 28.4619 13.5742 29.4571 13.1444C30.4522 12.7146 31.5281 13.0979 31.8906 13.9977C32.0758 14.3252 32.0945 14.6976 31.9691 15.0818Z" fill="#FFC333"/>
<path fill-rule="evenodd" clip-rule="evenodd" d="M31.7833 21.543C31.5956 21.0578 31.8536 20.4793 32.416 20.2473C32.9784 20.0154 33.5422 20.2116 33.7299 20.6967C33.9124 21.1564 33.6544 21.735 33.0972 21.9923C32.5348 22.2243 31.9657 22.0027 31.7833 21.543Z" fill="#FFC333"/>
<path fill-rule="evenodd" clip-rule="evenodd" d="M96.9217 80.6278L94.5067 79.152C94.0455 78.8701 93.8986 78.2616 94.1802 77.7996L97.1156 72.9973C97.3973 72.5353 98.0059 72.3884 98.4673 72.671L100.882 74.1469C101.344 74.4285 101.491 75.0371 101.209 75.4985L98.2742 80.3014C97.9917 80.7636 97.3839 80.9103 96.9217 80.6278Z" fill="#FFC333" stroke="#1A1A1A" stroke-width="2.19446"/>
<path fill-rule="evenodd" clip-rule="evenodd" d="M93.2355 91.2598L86.7265 87.2821C86.2653 87.0003 86.1184 86.3917 86.4003 85.9305L93.2966 74.6455C93.5785 74.1843 94.1871 74.0374 94.6483 74.3192L101.157 78.2969C101.619 78.5786 101.766 79.1872 101.484 79.6493L94.5879 90.9334C94.3053 91.3948 93.6974 91.5415 93.2355 91.2598Z" fill="white" stroke="#1A1A1A" stroke-width="2.19446"/>
<path fill-rule="evenodd" clip-rule="evenodd" d="M88.7303 91.3175C84.9625 89.015 80.041 90.2029 77.7384 93.9707L91.3835 102.309C93.686 98.5415 92.4981 93.62 88.7303 91.3175Z" fill="white" stroke="#1A1A1A" stroke-width="2.19446" stroke-linecap="round" stroke-linejoin="round"/>
<path d="M89.9813 89.2708L88.7301 91.3183" stroke="#1A1A1A" stroke-width="2.19446" stroke-linecap="round" stroke-linejoin="round"/>
<path d="M84.5611 98.14L83.3099 100.187" stroke="#1A1A1A" stroke-width="2.19446" stroke-linecap="round" stroke-linejoin="round"/>
<path fill-rule="evenodd" clip-rule="evenodd" d="M83.4238 103.068C82.9633 103.821 81.9793 104.059 81.2257 103.598C80.4722 103.138 80.2347 102.154 80.6952 101.4C81.1557 100.647 82.1397 100.409 82.8932 100.869C83.6468 101.33 83.8843 102.314 83.4238 103.068Z" fill="#FFC333" stroke="#1A1A1A" stroke-width="2.19446"/>
<path fill-rule="evenodd" clip-rule="evenodd" d="M83.0447 82.2211L72.129 75.5498L76.7152 68.0451L87.6309 74.7165L83.0447 82.2211Z" fill="white" stroke="#1A1A1A" stroke-width="2.19446" stroke-linejoin="round"/>
<path d="M89.64 80.6288L85.5461 78.127" stroke="#1A1A1A" stroke-width="2.19446" stroke-linecap="round" stroke-linejoin="round"/>
<path fill-rule="evenodd" clip-rule="evenodd" d="M104.006 84.7224L114.921 91.393L110.336 98.8982L99.4195 92.2271L104.006 84.7224Z" fill="white" stroke="#1A1A1A" stroke-width="2.19446" stroke-linejoin="round"/>
<path d="M97.4104 86.3145L101.504 88.8163" stroke="#1A1A1A" stroke-width="2.19446" stroke-linecap="round" stroke-linejoin="round"/>
<path d="M82.1731 71.3806L77.5869 78.8853" stroke="#1A1A1A" stroke-width="2.19446" stroke-linecap="round" stroke-linejoin="round"/>
<path d="M74.2136 72.1387L85.129 78.8092" stroke="#1A1A1A" stroke-width="2.19446" stroke-linecap="round" stroke-linejoin="round"/>
<path d="M102.186 89.2329L112.42 95.4866" stroke="#1A1A1A" stroke-width="2.19446" stroke-linecap="round" stroke-linejoin="round"/>
<path d="M109.464 88.0578L104.877 95.5625" stroke="#1A1A1A" stroke-width="2.19446" stroke-linecap="round" stroke-linejoin="round"/>
<path d="M83.3481 108.02C82.0823 108.256 80.7353 108.134 79.4601 107.595C78.1637 107.046 77.1271 106.142 76.4138 105.044" stroke="#1A1A1A" stroke-width="2.19446" stroke-linecap="round" stroke-linejoin="round"/>
<path d="M83.7128 114.444C81.3732 114.879 78.8837 114.656 76.529 113.658C74.1341 112.644 72.2174 110.974 70.9003 108.945" stroke="#1A1A1A" stroke-width="2.19446" stroke-linecap="round" stroke-linejoin="round"/>
</svg>
