<svg width="170" height="137" viewBox="0 0 170 137" fill="none" xmlns="http://www.w3.org/2000/svg">
<path d="M119.065 68.8337C117.867 67.2635 116.503 65.8998 114.933 64.8668C114.891 64.6602 114.891 64.5362 114.85 64.2883C116.172 59.8669 113.776 52.5942 112.371 48.1728C105.925 27.8424 84.3133 15.3633 63.611 17.1401C38.6113 19.2475 20.4297 40.7762 18.281 65.0734C17.3719 75.3625 19.438 85.2385 25.1404 93.8334C32.661 105.156 44.6856 108.337 56.9995 111.891C63.4044 113.751 70.801 116.188 78.4042 118.089C82.7843 119.949 87.4537 121.147 93.3627 120.775C93.4041 120.775 93.4867 120.734 93.528 120.734C107.33 121.891 120.098 118.626 126.999 103.544C132.701 91.2301 130.759 76.6848 119.065 68.8337Z" fill="#FFC244"/>
<path d="M37.1237 83.3791C37.1237 83.3791 40.3054 73.5445 34.7683 68.0073C29.2312 62.4702 27.1651 49.4538 39.9749 42.801" stroke="#222221" stroke-width="1.65287" stroke-miterlimit="10" stroke-linecap="round" stroke-linejoin="round" stroke-dasharray="1.65 1.65"/>
<path d="M29.3139 115.362C36.1147 115.362 41.6278 109.849 41.6278 103.048C41.6278 96.2475 36.1147 90.7344 29.3139 90.7344C22.5131 90.7344 17 96.2475 17 103.048C17 109.849 22.5131 115.362 29.3139 115.362Z" fill="#FFC244" stroke="#222221" stroke-width="1.65287" stroke-miterlimit="10" stroke-linecap="round" stroke-linejoin="round"/>
<path d="M29.3139 110.238C33.2848 110.238 36.5039 107.019 36.5039 103.048C36.5039 99.0775 33.2848 95.8584 29.3139 95.8584C25.343 95.8584 22.1239 99.0775 22.1239 103.048C22.1239 107.019 25.343 110.238 29.3139 110.238Z" fill="white" stroke="#222221" stroke-width="1.65287" stroke-miterlimit="10" stroke-linecap="round" stroke-linejoin="round"/>
<path d="M79.0241 129.866C85.8249 129.866 91.338 124.353 91.338 117.552C91.338 110.751 85.8249 105.238 79.0241 105.238C72.2233 105.238 66.7102 110.751 66.7102 117.552C66.7102 124.353 72.2233 129.866 79.0241 129.866Z" fill="#FFC244" stroke="#222221" stroke-width="1.65287" stroke-miterlimit="10" stroke-linecap="round" stroke-linejoin="round"/>
<path d="M78.9001 124.908C82.7341 124.908 85.8421 121.8 85.8421 117.966C85.8421 114.132 82.7341 111.023 78.9001 111.023C75.0661 111.023 71.958 114.132 71.958 117.966C71.958 121.8 75.0661 124.908 78.9001 124.908Z" fill="white" stroke="#222221" stroke-width="1.65287" stroke-miterlimit="10" stroke-linecap="round" stroke-linejoin="round"/>
<path d="M27.5784 103.627L27.2891 103.131C26.7519 102.139 27.1238 100.941 28.0742 100.404L42.5782 92.47C43.5699 91.9328 44.7682 92.3047 45.3054 93.2551L45.5947 93.751C46.1319 94.7427 45.76 95.9411 44.8096 96.4782L30.3056 104.412C29.3139 104.949 28.0742 104.577 27.5784 103.627Z" fill="white" stroke="#222221" stroke-width="1.65287" stroke-miterlimit="10" stroke-linecap="round" stroke-linejoin="round"/>
<path d="M64.5201 110.528L79.4787 114.908C80.1811 115.114 80.7596 115.528 81.1728 116.106C82.3712 117.759 81.7514 120.073 79.8919 120.899C79.1894 121.23 78.4043 121.271 77.6605 121.065L61.6689 116.395L64.5201 110.528Z" fill="white" stroke="#222221" stroke-width="1.65287" stroke-miterlimit="10" stroke-linecap="round" stroke-linejoin="round"/>
<path d="M54.3962 77.3875L47.0409 102.181C47.0409 102.181 45.0575 107.718 48.074 108.586C51.0905 109.453 59.5201 111.933 59.5201 111.933L59.892 116.395L45.3468 112.181C43.2807 111.561 41.7104 109.908 41.1732 107.8L32.6196 90.9411C32.661 90.9824 41.3385 73.5859 54.3962 77.3875Z" fill="white" stroke="#222221" stroke-width="1.65287" stroke-miterlimit="10" stroke-linecap="round" stroke-linejoin="round"/>
<path d="M65.6358 94.66C62.0408 94.5361 59.1896 97.6765 59.6442 101.23L59.0657 116.189L64.8507 117.883C64.8507 117.883 65.8011 100.073 81.7927 98.6269L81.6274 94.8667L65.6358 94.66Z" fill="white" stroke="#222221" stroke-width="1.65287" stroke-miterlimit="10" stroke-linecap="round" stroke-linejoin="round"/>
<path d="M84.6851 96.5195C84.5612 98.0898 83.1975 99.2468 81.586 99.1228L59.7268 97.5526C58.1565 97.4286 56.9995 96.065 57.1235 94.4534C57.2474 92.8832 58.6111 91.7262 60.2226 91.8502L82.0819 93.4204C83.6521 93.5857 84.8091 94.9493 84.6851 96.5195Z" fill="white" stroke="#222221" stroke-width="1.65287" stroke-miterlimit="10" stroke-linecap="round" stroke-linejoin="round"/>
<path d="M84.6851 96.5195C84.5612 98.0898 83.1975 99.2468 81.586 99.1228L59.7268 97.5526C58.1565 97.4286 56.9995 96.065 57.1235 94.4534C57.2474 92.8832 58.6111 91.7262 60.2226 91.8502L82.0819 93.4204C83.6521 93.5857 84.8091 94.9493 84.6851 96.5195Z" fill="#FFC244" stroke="#222221" stroke-width="1.65287" stroke-miterlimit="10" stroke-linecap="round" stroke-linejoin="round"/>
<path d="M54.1896 78.0899L46.2145 75.7346C44.2311 75.1561 43.074 73.0487 43.6526 71.0239L44.1897 69.2057C44.7682 67.2223 46.8757 66.0653 48.9004 66.6438L56.8755 68.9991L54.1896 78.0899Z" fill="white" stroke="#222221" stroke-width="1.65287" stroke-miterlimit="10" stroke-linecap="round" stroke-linejoin="round"/>
<path d="M59.6028 74.2058L53.2806 72.3463C52.1649 72.0157 51.5451 70.8587 51.8757 69.743C52.2062 68.6273 53.3632 68.0075 54.4789 68.3381L60.8012 70.1975C61.9169 70.5281 62.5367 71.6851 62.2061 72.8008C61.8755 73.9165 60.7185 74.5363 59.6028 74.2058Z" fill="#FFC244" stroke="#222221" stroke-width="1.65287" stroke-miterlimit="10" stroke-linecap="round" stroke-linejoin="round"/>
<path d="M53.3219 68.3381L59.3962 61.0654" stroke="#222221" stroke-width="1.65287" stroke-miterlimit="10" stroke-linecap="round" stroke-linejoin="round"/>
<path d="M62.7846 64.9496L59.9334 64.1232C59.0657 63.8752 58.5698 62.9662 58.8177 62.0984L58.9417 61.6439C59.1896 60.7761 60.0987 60.2802 60.9665 60.5282L63.8177 61.3546C64.6854 61.6025 65.1813 62.5116 64.9334 63.3794L64.8094 63.8339C64.5615 64.7017 63.6524 65.1975 62.7846 64.9496Z" fill="white" stroke="#222221" stroke-width="1.65287" stroke-miterlimit="10" stroke-linecap="round" stroke-linejoin="round"/>
<path d="M48.2392 47.1811C49.5615 50.3629 52.5367 54.9083 52.5367 54.9083C52.9913 55.6108 53.9417 55.8174 54.6441 55.2802C54.6441 55.2802 58.8176 52.2224 61.1316 49.7431C62.9498 47.801 64.52 46.0241 65.925 44.2886C71.1729 37.8424 73.5695 32.8425 74.4786 27.6772C75.9662 19.4129 69.8919 11.4378 61.6275 9.9915C53.3631 8.50391 44.9335 13.9171 43.4459 22.1401C42.5782 26.9748 42.9914 32.1813 45.2641 39.2887C46.0492 41.6853 47.0409 44.2886 48.2392 47.1811ZM60.3879 17.0575C64.8919 17.8426 67.8671 22.1401 67.082 26.6442C66.2969 31.1483 61.9994 34.1234 57.4953 33.3383C52.9912 32.5532 50.0161 28.2557 50.8012 23.7517C51.5863 19.2476 55.8838 16.2724 60.3879 17.0575Z" fill="white" stroke="#222221" stroke-width="1.65287" stroke-miterlimit="10" stroke-linecap="round" stroke-linejoin="round"/>
<path d="M35.9254 47.6357C38.6113 49.7844 43.4047 52.3464 43.4047 52.3464C44.1484 52.7596 45.0988 52.4703 45.4707 51.6852C45.4707 51.6852 47.7021 46.9745 48.5286 43.7101C49.1897 41.1482 49.7269 38.7928 50.1401 36.6441C51.669 28.4624 51.3798 22.9252 49.7269 17.9666C47.0823 10.0328 37.9502 5.90065 29.9751 8.54524C21.9999 11.1898 17.1653 19.9501 19.8099 27.8839C21.3388 32.5532 24.19 36.9333 29.5618 42.0986C31.38 43.8341 33.4874 45.6522 35.9254 47.6357ZM32.2478 15.3633C36.5865 13.9171 41.2559 16.2724 42.7022 20.6112C44.1484 24.95 41.7931 29.6194 37.4543 31.0656C33.1155 32.5119 28.4461 30.1566 26.9999 25.8178C25.5536 21.479 27.909 16.8096 32.2478 15.3633Z" fill="#FFC244" stroke="#222221" stroke-width="1.65287" stroke-miterlimit="10" stroke-linecap="round" stroke-linejoin="round"/>
<path d="M81.5448 81.1889L103.156 87.6351V37.8423L81.3382 46.3133C79.4374 46.6852 78.0737 48.338 78.0737 50.2802V77.222C78.0737 79.2054 79.5613 80.8996 81.5448 81.1889Z" fill="white" stroke="#222221" stroke-width="1.65287" stroke-miterlimit="10" stroke-linecap="round" stroke-linejoin="round"/>
<path d="M138.982 80.569L103.156 87.6351V37.8423L135.718 43.6687C137.619 44.0406 138.982 45.6934 138.982 47.6356V80.569Z" fill="white" stroke="#222221" stroke-width="1.65287" stroke-miterlimit="10" stroke-linecap="round" stroke-linejoin="round"/>
<path d="M138.982 51.1893L103.156 46.8918L78.0737 54.3298" stroke="#222221" stroke-width="1.65287" stroke-miterlimit="10" stroke-linecap="round" stroke-linejoin="round"/>
<path d="M116.42 48.462V41.1067" stroke="#222221" stroke-width="1.65287" stroke-miterlimit="10" stroke-linecap="round" stroke-linejoin="round"/>
<path d="M128.941 50.0322V43.2554" stroke="#222221" stroke-width="1.65287" stroke-miterlimit="10" stroke-linecap="round" stroke-linejoin="round"/>
<path d="M103.156 87.6351L135.305 97.635L166.131 87.6351L138.982 80.5691L103.156 87.6351Z" fill="white"/>
<path d="M103.156 87.6352L130.057 95.9822C133.486 97.0566 137.164 97.0152 140.552 95.8995L162.122 88.9162C163.279 88.5443 163.238 86.8501 162.04 86.5608L138.982 80.5278L103.156 87.6352Z" stroke="#222221" stroke-width="1.65287" stroke-miterlimit="10" stroke-linecap="round" stroke-linejoin="round"/>
<path d="M138.982 80.569L103.156 76.3955" stroke="#222221" stroke-width="1.65287" stroke-miterlimit="10" stroke-linecap="round" stroke-linejoin="round"/>
<path d="M121.214 58.9166V55.4042C121.214 54.3712 122.04 53.5034 123.115 53.5034C123.156 53.5034 123.197 53.5034 123.239 53.5034L126.379 53.9166C127.371 53.958 128.197 54.7844 128.197 55.8174V59.3298" stroke="#222221" stroke-width="1.65287" stroke-miterlimit="10" stroke-linecap="round" stroke-linejoin="round"/>
<path d="M136.214 84.784L116.42 86.6848L117.329 57.9248L134.809 59.5777L136.214 84.784Z" fill="#FFC244" stroke="#222221" stroke-width="1.65287" stroke-miterlimit="10" stroke-linecap="round" stroke-linejoin="round"/>
<path d="M116.42 86.6848L108.528 84.1642L110.718 59.8256L117.33 57.9248L116.42 86.6848Z" fill="#FFC244" stroke="#222221" stroke-width="1.65287" stroke-miterlimit="10" stroke-linecap="round" stroke-linejoin="round"/>
<path d="M90.1809 112.387L105.015 115.362" stroke="#222221" stroke-width="1.65287" stroke-miterlimit="10" stroke-linecap="round" stroke-linejoin="round"/>
<path d="M91.338 118.875L101.421 120.858" stroke="#222221" stroke-width="1.65287" stroke-miterlimit="10" stroke-linecap="round" stroke-linejoin="round"/>
<path d="M89.4785 124.949L97.1644 126.478" stroke="#222221" stroke-width="1.65287" stroke-miterlimit="10" stroke-linecap="round" stroke-linejoin="round"/>
<path d="M108.363 10.4873C108.363 10.4873 108.528 13.8344 101.586 23.545C94.6438 33.2556 85.429 29.2887 84.9744 25.983C84.4786 22.6772 88.0736 22.1401 88.0736 22.1401C89.2719 22.1401 90.3463 21.8921 91.2554 22.2227C91.2554 22.2227 100.594 21.5202 97.1644 39.8671" stroke="#222221" stroke-width="1.65287" stroke-miterlimit="10" stroke-linecap="round" stroke-linejoin="round" stroke-dasharray="2.89 2.89"/>
<path d="M111.958 11.4791C111.462 10.7353 110.924 10.0328 110.305 9.33035C109.891 8.87581 109.437 8.21466 108.817 8.04938C108.28 7.92541 107.825 8.25599 107.412 8.50392C106.503 9.0411 105.635 9.61961 104.726 10.1981C103.9 10.7353 104.644 12.0576 105.511 11.5204C106.007 11.1898 106.544 10.8593 107.04 10.57C107.288 10.4047 108.28 9.57828 108.569 9.61961C108.321 9.53696 108.363 9.66093 108.734 9.90886C108.941 10.1155 109.148 10.3634 109.354 10.57C109.809 11.1072 110.222 11.6444 110.594 12.2229C111.172 13.0493 112.536 12.3055 111.958 11.4791Z" fill="#222221"/>
</svg>
