<svg width="170" height="137" viewBox="0 0 170 137" fill="none" xmlns="http://www.w3.org/2000/svg">
<path d="M24.9451 66.2937C28.0355 72.0511 32.6076 76.6656 37.4338 80.8143C45.6889 87.9265 49.9647 93.1759 54.0711 103.463C65.7554 132.843 100.978 144.062 129.426 131.404C163.251 116.417 168.966 76.1999 146.656 48.6826C123.499 20.107 82.5621 10.7511 47.8903 18.9639C47.3823 19.0486 47.0013 19.2603 46.578 19.4296C39.5081 20.4456 32.9887 23.2397 27.7392 29.6322C19.4417 39.7501 18.849 54.8634 24.9451 66.2937Z" fill="#FFC244"/>
<path d="M14.5732 63.6693L14.7849 64.1773L21.8547 81.7884C22.4898 82.8467 23.8445 83.1431 24.9028 82.5081L35.9944 75.7346C36.2484 75.5652 36.4601 75.3536 36.5871 75.1419C37.2221 74.2529 37.0104 73.0252 36.1637 72.3055L20.0767 60.2402L15.4623 61.3409L14.5732 63.6693Z" fill="#FFC244" stroke="#272726" stroke-width="1.56684" stroke-miterlimit="10" stroke-linecap="round" stroke-linejoin="round"/>
<path d="M11.6099 57.0649L15.5046 54.6519L17.3673 57.6999L13.4726 60.0706L11.6099 57.0649Z" fill="white" stroke="#272726" stroke-width="1.56684" stroke-miterlimit="10" stroke-linecap="round" stroke-linejoin="round"/>
<path d="M17.7059 58.4195L16.8169 57.1072" stroke="#272726" stroke-width="1.56684" stroke-miterlimit="10" stroke-linecap="round" stroke-linejoin="round"/>
<path d="M13.3878 60.2824H13.4725L17.4096 57.8694H17.4943C17.8753 57.573 18.4679 57.7423 18.7643 58.208L19.8226 59.9861C20.119 60.3671 19.9497 60.9598 19.484 61.2561L15.3775 63.7115C14.9965 64.0078 14.4039 63.8385 14.1075 63.3728L13.0492 61.5948C12.8375 61.1714 12.9645 60.5787 13.3878 60.2824Z" fill="white" stroke="#272726" stroke-width="1.56684" stroke-miterlimit="10" stroke-linecap="round" stroke-linejoin="round"/>
<path fill-rule="evenodd" clip-rule="evenodd" d="M9.66243 50.2064L14.1499 47.497L14.5309 47.2007L18.1293 44.957C18.9336 44.4913 19.992 44.7029 20.5847 45.5496L21.3467 46.8197C21.8124 47.624 21.6007 48.6824 20.7963 49.148L19.738 49.7831C19.9073 50.0371 20.0343 50.1641 20.1613 50.3334C21.262 51.8151 22.5744 53.1275 22.9977 53.2968C23.1247 53.3815 23.2094 53.3391 23.2941 53.4238C24.0137 53.8048 24.3101 54.6515 23.9291 55.3712C23.8021 55.5829 23.6751 55.7945 23.4211 55.9639C23.1671 56.1332 22.8284 56.2179 22.532 56.0909C21.389 55.9215 20.2883 55.5405 19.3146 54.9478C18.5526 54.4822 17.7906 54.0165 17.1979 53.4238L9.49309 58.1229C8.85807 58.4616 8.05372 58.2923 7.75738 57.6996C6.23335 55.1595 7.08003 51.7304 9.66243 50.2064Z" fill="white" stroke="#272726" stroke-width="1.56684" stroke-miterlimit="10" stroke-linecap="round" stroke-linejoin="round"/>
<path d="M26.0034 52.789L28.5858 43.0098L38.5767 44.9148L26.0034 52.789Z" fill="#FFC244" stroke="#272726" stroke-width="1.56684" stroke-miterlimit="10" stroke-linecap="round" stroke-linejoin="round"/>
<path d="M28.5858 43.0099L39.0424 37.1677L48.6523 39.1574L38.5767 44.9149L28.5858 43.0099Z" fill="#EEC050"/>
<path d="M28.5858 43.0099L39.0424 37.1677L48.6523 39.1574L38.5767 44.9149L28.5858 43.0099Z" fill="#FFC244" stroke="#272726" stroke-width="1.56684" stroke-miterlimit="10" stroke-linecap="round" stroke-linejoin="round"/>
<path d="M28.2472 42.9675L25.7495 39.6231L36.1214 33.9927L38.7038 37.1677L28.2472 42.9675Z" fill="white" stroke="#272726" stroke-width="1.56684" stroke-miterlimit="10" stroke-linecap="round" stroke-linejoin="round"/>
<path d="M43.4876 52.7041L38.5768 44.9146L43.4876 52.7041Z" stroke="#343434" stroke-width="0.522229" stroke-miterlimit="10"/>
<path d="M43.4875 52.7041L38.5767 44.9146L26.0034 52.7887L30.6602 60.2396L43.3605 80.179L55.8068 72.2625L43.4875 52.7041Z" fill="white" stroke="#272726" stroke-width="1.56684" stroke-miterlimit="10" stroke-linecap="round" stroke-linejoin="round"/>
<path d="M51.8274 69.1302L42.4716 54.3132L49.1604 50.3337" stroke="white" stroke-width="0.629479" stroke-miterlimit="10" stroke-linecap="round" stroke-linejoin="round"/>
<path d="M62.538 61.1292L53.5208 46.7779L48.6523 39.1577L38.5768 44.9152L43.4876 52.7047L53.0551 67.9874L55.8068 72.2631L65.5861 65.8706L62.538 61.1292Z" fill="white" stroke="#272726" stroke-width="1.56684" stroke-miterlimit="10" stroke-linecap="round" stroke-linejoin="round"/>
<path d="M63.7234 80.7723C63.0037 84.8787 59.1937 87.6304 55.0449 86.9954C50.9385 86.2757 48.1867 82.4657 48.8218 78.3169L54.6639 41.4861C55.3836 37.3796 59.1937 34.6279 63.3424 35.2629C67.4489 35.9826 70.2006 39.7927 69.5656 43.9415L63.7234 80.7723Z" fill="white" stroke="#272726" stroke-width="1.56684" stroke-miterlimit="10" stroke-linecap="round" stroke-linejoin="round"/>
<path d="M63.2154 44.5339C60.9716 47.328 57.3732 48.7674 53.6055 48.1324L63.2154 44.5339Z" fill="white"/>
<path d="M63.2154 44.5339C60.9716 47.328 57.3732 48.7674 53.6055 48.1324" stroke="#272726" stroke-width="1.56684" stroke-miterlimit="10" stroke-linecap="round" stroke-linejoin="round"/>
<path d="M61.8606 53.3396C59.6169 56.1337 56.0185 57.573 52.2507 56.938L61.8606 53.3396Z" fill="white"/>
<path d="M61.8606 53.3396C59.6169 56.1337 56.0185 57.573 52.2507 56.938" stroke="#272726" stroke-width="1.56684" stroke-miterlimit="10" stroke-linecap="round" stroke-linejoin="round"/>
<path d="M88.9546 117.772L44.2496 133.14L30.4486 66.1246L71.6822 60.2825L88.9546 117.772Z" fill="white"/>
<path d="M88.9546 117.772L44.2496 133.14L30.4486 66.1246L71.6822 60.2825L88.9546 117.772Z" stroke="#272726" stroke-width="1.56684" stroke-miterlimit="10" stroke-linecap="round" stroke-linejoin="round"/>
<path d="M44.2496 133.139L24.6065 131.742L16.1396 74.2101L30.4486 66.1243L44.2496 133.139Z" fill="white"/>
<path d="M44.2496 133.139L24.6065 131.742L16.1396 74.2101L30.4486 66.1243L44.2496 133.139Z" stroke="#272726" stroke-width="1.56684" stroke-miterlimit="10" stroke-linecap="round" stroke-linejoin="round"/>
<path d="M83.1547 91.271L81.2496 91.779L76.1695 93.176L72.3171 94.192C71.4281 92.922 69.65 91.6943 66.983 92.4987C65.1203 93.0067 63.8926 94.6577 63.8502 96.4357L57.2461 98.2138L61.3948 113.708L78.3709 109.178L85.3137 107.316H85.3561C86.4144 107.019 87.0071 105.919 86.7108 104.86C86.4144 103.802 85.3561 103.167 84.34 103.421L86.1604 102.955C87.0494 102.701 87.7268 101.897 87.7268 100.966C87.6845 99.6531 86.4144 98.7641 85.2291 99.0605C86.2874 98.7641 86.9224 97.6634 86.6684 96.6051C86.3721 95.5467 85.2714 94.9117 84.213 95.1657C85.2714 94.8694 85.9064 93.7687 85.6524 92.7103C85.3137 91.6096 84.213 90.9746 83.1547 91.271Z" fill="white" stroke="#272726" stroke-width="1.56684" stroke-miterlimit="10" stroke-linecap="round" stroke-linejoin="round"/>
<path d="M85.1445 103.167L79.4293 104.818" stroke="#272726" stroke-width="1.56684" stroke-miterlimit="10" stroke-linecap="round" stroke-linejoin="round"/>
<path d="M85.4407 98.9336L78.4556 100.923" stroke="#272726" stroke-width="1.56684" stroke-miterlimit="10" stroke-linecap="round" stroke-linejoin="round"/>
<path d="M84.1708 95.1658L77.3973 97.0708" stroke="#272726" stroke-width="1.56684" stroke-miterlimit="10" stroke-linecap="round" stroke-linejoin="round"/>
<path d="M60.1673 96.7321C59.3629 96.7321 58.5586 96.8167 57.7542 97.0284C39.3388 101.982 31.3799 101.855 28.3319 101.347C28.3319 101.347 18.849 100.627 17.7483 85.1748C17.4943 85.5135 14.5309 89.1966 12.6259 93.049C8.43476 101.728 10.2128 107.739 12.4565 111.21C15.7586 116.333 21.8971 119.042 30.6603 119.212C31.0413 119.212 31.3799 119.212 31.761 119.212C39.4235 119.212 49.4144 117.518 62.284 114.089C62.919 113.92 63.5117 113.666 64.062 113.369C64.3584 109.432 63.7657 103.506 60.1673 96.7321Z" fill="#FFC244" stroke="#272726" stroke-width="1.56684" stroke-miterlimit="10" stroke-linecap="round" stroke-linejoin="round"/>
<path d="M74.4339 93.5994L69.2268 95.2081" stroke="#272726" stroke-width="1.56684" stroke-miterlimit="10" stroke-linecap="round" stroke-linejoin="round"/>
<path d="M58.4315 112.099C59.7175 112.099 60.7599 111.057 60.7599 109.771C60.7599 108.485 59.7175 107.442 58.4315 107.442C57.1456 107.442 56.1031 108.485 56.1031 109.771C56.1031 111.057 57.1456 112.099 58.4315 112.099Z" fill="white"/>
<path d="M58.4315 108.332C59.2359 108.332 59.9132 109.009 59.9132 109.813C59.9132 110.618 59.2359 111.295 58.4315 111.295C57.6272 111.295 56.9498 110.618 56.9498 109.813C56.9498 108.967 57.6272 108.332 58.4315 108.332ZM58.4315 106.638C56.6958 106.638 55.2565 108.035 55.2565 109.813C55.2565 111.549 56.6535 112.988 58.4315 112.988C60.2096 112.988 61.6066 111.591 61.6066 109.813C61.6066 108.035 60.1672 106.638 58.4315 106.638Z" fill="#272726"/>
<path d="M50.1339 4.14748L61.3102 13.8844C64.5699 16.8478 67.2793 20.4462 69.777 24.0869C72.5287 28.0663 75.7885 31.7071 79.4716 34.9245L102.882 55.372C104.11 56.4727 106.015 56.3456 107.116 55.0756L109.741 52.0699C110.841 50.8422 110.714 48.9372 109.444 47.8365L86.0334 27.389C82.3926 24.2139 78.3285 21.4622 74.0104 19.2608C70.0734 17.2711 66.1786 15.0697 62.7495 12.2333L51.6156 2.49644C51.1499 2.11543 50.4726 2.15776 50.0916 2.62344C49.6682 3.04678 49.7106 3.76647 50.1339 4.14748Z" fill="white"/>
<path d="M89.2508 40.3431L81.0803 33.1886C80.4876 32.6806 80.4453 31.8339 80.9533 31.2413L83.0276 28.8705C83.5357 28.2779 84.3823 28.2355 84.975 28.7435L93.1455 35.898C93.7382 36.4061 93.7806 37.2527 93.2725 37.8454L91.1982 40.2161C90.6902 40.7665 89.8435 40.8512 89.2508 40.3431Z" fill="#FFC244" stroke="#272726" stroke-width="1.56684" stroke-miterlimit="10" stroke-linecap="round" stroke-linejoin="round"/>
<path d="M97.2943 46.2702C96.7017 46.2702 96.1513 46.0585 95.728 45.6775L95.2623 45.2542C94.2463 44.3652 94.1616 42.8411 95.0506 41.8674L95.474 41.4018C95.9396 40.8938 96.5747 40.5974 97.2943 40.5974C97.887 40.5974 98.4374 40.8091 98.8607 41.1901L99.3264 41.6134C99.7921 42.0368 100.088 42.6295 100.131 43.2645C100.173 43.8995 99.9614 44.5345 99.5381 45.0002L99.1147 45.4659C98.649 45.9739 98.014 46.2702 97.2943 46.2702Z" fill="#EEC050"/>
<path d="M97.252 41.4014C97.633 41.4014 97.9717 41.5284 98.268 41.7824L98.7337 42.2057C99.3687 42.7561 99.4534 43.7721 98.9031 44.4071L98.4797 44.8728C98.1834 45.2115 97.76 45.4231 97.2943 45.4231C96.9133 45.4231 96.5747 45.2961 96.2783 45.0421L95.8126 44.6188C95.1776 44.0684 95.093 43.0524 95.6433 42.4174L96.0667 41.9517C96.363 41.6131 96.8287 41.4014 97.252 41.4014ZM97.252 39.708C96.3207 39.708 95.4316 40.1314 94.7966 40.8087L94.3733 41.2744C93.8229 41.9094 93.5266 42.7561 93.5689 43.6451C93.6113 44.4918 94.0346 45.2961 94.6696 45.8888L95.1353 46.3122C95.728 46.8202 96.49 47.1165 97.252 47.1165C98.1834 47.1165 99.0724 46.6932 99.7074 46.0158L100.131 45.5501C100.681 44.9151 100.977 44.0684 100.935 43.1794C100.893 42.2904 100.469 41.5284 99.8344 40.9357L99.3687 40.5124C98.7761 40.0043 98.014 39.708 97.252 39.708Z" fill="#272726"/>
<path d="M104.83 56.8955C103.898 56.8955 103.009 56.5568 102.29 55.9641L97.887 52.1117C97.5483 51.8153 97.506 51.265 97.8023 50.9263L104.364 43.3908C104.533 43.1791 104.787 43.0945 104.999 43.0945C105.211 43.0945 105.38 43.1792 105.549 43.3062L109.952 47.1586C111.561 48.5556 111.688 50.9687 110.333 52.5774L107.709 55.5831C106.989 56.4298 105.93 56.8955 104.83 56.8955Z" fill="#FFC244"/>
<path d="M105.042 43.9837L109.444 47.8361C110.672 48.9368 110.799 50.7995 109.741 52.0695L107.116 55.0752C106.523 55.7526 105.719 56.0913 104.872 56.0913C104.195 56.0913 103.475 55.8373 102.925 55.3716L98.522 51.5192L105.042 43.9837ZM105.042 42.2903C104.999 42.2903 104.957 42.2903 104.915 42.2903C104.449 42.3326 104.068 42.5443 103.771 42.883L97.2097 50.3761C96.5746 51.0958 96.6593 52.1542 97.379 52.7469L101.782 56.5993C102.628 57.3613 103.729 57.7423 104.872 57.7423C106.227 57.7423 107.497 57.1496 108.386 56.1336L111.011 53.1279C111.815 52.1965 112.238 50.9688 112.154 49.7411C112.069 48.5134 111.519 47.3704 110.545 46.5237L106.142 42.6713C105.846 42.4173 105.465 42.2903 105.042 42.2903Z" fill="#272726"/>
<path d="M50.896 2.24195C51.15 2.24195 51.404 2.32662 51.6157 2.49596L62.7496 12.2328C66.1364 15.0692 70.0734 17.2283 74.0105 19.2603C78.3286 21.4617 82.3927 24.2135 86.0335 27.3885L109.444 47.836C110.672 48.9367 110.799 50.7994 109.741 52.0694L107.116 55.0751C106.523 55.7525 105.719 56.0912 104.872 56.0912C104.195 56.0912 103.475 55.8372 102.925 55.3715L79.514 34.924C75.8732 31.749 72.6135 28.1082 69.8194 24.0865C67.3217 20.4457 64.6123 16.8896 61.3526 13.8839L50.1763 4.147C49.753 3.72366 49.7106 3.04631 50.0917 2.58063C50.3033 2.36896 50.5997 2.24195 50.896 2.24195ZM50.896 0.548584C50.0917 0.548584 49.3296 0.887259 48.7793 1.52227C47.8056 2.6653 47.8903 4.401 48.991 5.41703C48.991 5.41703 48.991 5.41703 49.0333 5.45936L60.1672 15.1962C63.3846 18.1596 66.0093 21.7157 68.3801 25.1025C71.2165 29.2089 74.5609 32.9343 78.3286 36.2364L101.739 56.6839C102.586 57.4459 103.687 57.8269 104.83 57.8269C106.185 57.8269 107.455 57.2342 108.344 56.2182L110.968 53.2124C111.773 52.2811 112.196 51.0534 112.111 49.8257C112.027 48.598 111.476 47.455 110.503 46.6083L87.0918 26.1608C83.3241 22.8588 79.1753 20.0647 74.7302 17.7786C71.0471 15.9159 67.1947 13.7992 63.808 10.9628L52.674 1.22593C52.674 1.22593 52.674 1.22593 52.6317 1.1836C52.2084 0.760255 51.5734 0.548584 50.896 0.548584Z" fill="#272726"/>
<path d="M53.7324 5.58649L50.9384 3.1311" stroke="white" stroke-width="1.17513" stroke-miterlimit="10" stroke-linecap="round" stroke-linejoin="round"/>
<path d="M56.0184 5.16309L53.3513 8.12649" stroke="#272726" stroke-width="1.56684" stroke-miterlimit="10" stroke-linecap="round" stroke-linejoin="round"/>
<path d="M86.4144 23.0283L86.3721 20.6152" stroke="#272726" stroke-width="1.56684" stroke-miterlimit="10" stroke-linecap="round" stroke-linejoin="round"/>
<path d="M90.7325 25.0181L92.4683 21.7161" stroke="#272726" stroke-width="1.56684" stroke-miterlimit="10" stroke-linecap="round" stroke-linejoin="round"/>
<path d="M93.6112 28.7438L95.3469 27.0081" stroke="#272726" stroke-width="1.56684" stroke-miterlimit="10" stroke-linecap="round" stroke-linejoin="round"/>
<path d="M97.8022 31.7491L100.681 30.0134" stroke="#272726" stroke-width="1.56684" stroke-miterlimit="10" stroke-linecap="round" stroke-linejoin="round"/>
<path d="M114.457 83.1875C119.309 81.2803 122.46 77.7408 121.493 75.2819C120.527 72.823 115.809 72.3757 110.957 74.283C106.104 76.1902 102.954 79.7297 103.92 82.1886C104.887 84.6475 109.604 85.0947 114.457 83.1875Z" fill="white" stroke="#272726" stroke-width="1.56684" stroke-miterlimit="10" stroke-linecap="round" stroke-linejoin="round"/>
<path d="M153.715 85.3456L120.434 74.2029L116.106 87.1298L149.387 98.2725L153.715 85.3456Z" fill="#EEC050" stroke="#272726" stroke-width="1.56684" stroke-miterlimit="10" stroke-linecap="round" stroke-linejoin="round"/>
<path d="M158.946 100.695C161.045 99.0905 160.179 94.4319 157.012 90.29C153.845 86.1481 149.576 84.0914 147.477 85.6961C145.379 87.3009 146.245 91.9595 149.411 96.1014C152.578 100.243 156.847 102.3 158.946 100.695Z" fill="white" stroke="#272726" stroke-width="1.56684" stroke-miterlimit="10" stroke-linecap="round" stroke-linejoin="round"/>
<path d="M124.271 68.6522C126.064 68.0441 126.544 64.6793 125.343 61.1367C124.142 57.594 121.714 55.2151 119.921 55.8232C118.127 56.4314 117.647 59.7962 118.848 63.3388C120.05 66.8814 122.477 69.2603 124.271 68.6522Z" fill="white" stroke="#272726" stroke-width="1.56684" stroke-miterlimit="10" stroke-linecap="round" stroke-linejoin="round"/>
<path d="M131.439 60.6824C132.683 57.1547 132.245 53.7842 130.459 53.1541C128.673 52.5241 126.216 54.873 124.972 58.4007C123.727 61.9284 124.166 65.2989 125.952 65.9289C127.738 66.559 130.194 64.2101 131.439 60.6824Z" fill="white" stroke="#272726" stroke-width="1.56684" stroke-miterlimit="10" stroke-linecap="round" stroke-linejoin="round"/>
<path d="M120.028 73.6595C121.34 73.3632 122.145 72.0508 121.848 70.7385C121.764 70.3151 121.552 69.9341 121.256 69.6378C122.399 69.2144 123.076 67.9867 122.822 66.7591C122.526 65.4467 121.213 64.6423 119.901 64.9387C119.774 64.981 119.647 65.0233 119.562 65.0657C119.562 64.854 119.562 64.6423 119.52 64.3883C119.224 63.076 117.911 62.2716 116.599 62.568C115.456 62.822 114.694 63.8803 114.694 64.981C114.313 64.8963 113.932 64.854 113.509 64.981C112.196 65.2774 111.392 66.5897 111.688 67.9021C111.9 68.7911 112.577 69.4261 113.382 69.6801C112.747 70.2728 112.45 71.1618 112.662 72.0085C112.958 73.3209 114.271 74.1252 115.583 73.8289C116.387 73.6172 117.022 73.0669 117.319 72.3472C117.784 73.3209 118.927 73.9135 120.028 73.6595Z" fill="#FFC244" stroke="#272726" stroke-width="1.56684" stroke-miterlimit="10" stroke-linecap="round" stroke-linejoin="round"/>
<path d="M152.795 88.9001C155.335 88.3074 156.901 85.7673 156.309 83.2273C156.097 82.3806 155.716 81.6609 155.165 81.1106C157.367 80.3062 158.722 77.9355 158.129 75.6071C157.536 73.0671 154.996 71.5007 152.456 72.0934C152.202 72.1357 151.99 72.2204 151.779 72.305C151.779 71.8817 151.779 71.4584 151.652 71.035C151.059 68.495 148.519 66.9286 145.979 67.5213C143.778 68.0293 142.296 70.019 142.338 72.178C141.619 72.0087 140.856 71.9664 140.094 72.1357C137.554 72.7284 135.988 75.2684 136.581 77.8085C136.962 79.5019 138.274 80.7719 139.84 81.2376C138.655 82.3383 138.062 84.074 138.486 85.7673C139.078 88.3074 141.618 89.8738 144.159 89.2811C145.725 88.9001 146.953 87.7994 147.461 86.4024C148.434 88.3497 150.593 89.4504 152.795 88.9001Z" fill="#FFC244" stroke="#272726" stroke-width="1.56684" stroke-miterlimit="10" stroke-linecap="round" stroke-linejoin="round"/>
<path d="M120.959 75.8609C121.637 78.4009 124.261 79.925 126.802 79.2899C127.648 79.0783 128.368 78.6549 128.918 78.0622C129.807 80.306 132.22 81.576 134.591 80.941C137.131 80.2636 138.655 77.6389 138.02 75.0988C137.978 74.8448 137.893 74.6332 137.766 74.4215C138.189 74.4215 138.613 74.3792 139.078 74.2522C141.619 73.5748 143.143 70.9501 142.508 68.41C141.915 66.2086 139.883 64.7693 137.681 64.8539C137.851 64.1343 137.851 63.3299 137.639 62.5679C136.962 60.0278 134.337 58.5038 131.797 59.1388C130.061 59.6045 128.834 60.9169 128.41 62.5256C127.267 61.3402 125.489 60.7899 123.796 61.2555C121.256 61.9329 119.732 64.5576 120.367 67.0977C120.79 68.664 121.933 69.8917 123.372 70.3997C121.425 71.4158 120.367 73.6595 120.959 75.8609Z" fill="#FFC244" stroke="#272726" stroke-width="1.56684" stroke-miterlimit="10" stroke-linecap="round" stroke-linejoin="round"/>
<path d="M136.75 131.742L101.274 119.889L109.783 85.3015L150.72 99.0178L136.75 131.742Z" fill="white" stroke="#272726" stroke-width="1.56684" stroke-miterlimit="10" stroke-linecap="round" stroke-linejoin="round"/>
<path d="M152.033 103.251L106.227 87.9264C105.55 87.6724 105.169 86.9527 105.38 86.2331L106.82 81.915C107.074 81.2376 107.793 80.8566 108.513 81.0683L154.319 96.3933C154.996 96.6473 155.377 97.367 155.165 98.0867L153.726 102.405C153.472 103.082 152.71 103.463 152.033 103.251Z" fill="white" stroke="#272726" stroke-width="1.56684" stroke-miterlimit="10" stroke-linecap="round" stroke-linejoin="round"/>
<path d="M121.049 83.0729C122.554 81.9226 121.931 78.581 119.659 75.6093C117.387 72.6375 114.325 71.1609 112.821 72.3112C111.316 73.4615 111.939 76.8031 114.211 79.7749C116.483 82.7467 119.545 84.2232 121.049 83.0729Z" fill="white" stroke="#272726" stroke-width="1.56684" stroke-miterlimit="10" stroke-linecap="round" stroke-linejoin="round"/>
<path d="M125.548 86.1416C130.401 84.2344 133.551 80.6949 132.585 78.236C131.618 75.7771 126.901 75.3298 122.048 77.2371C117.196 79.1443 114.045 82.6838 115.012 85.1427C115.978 87.6016 120.696 88.0488 125.548 86.1416Z" fill="white" stroke="#272726" stroke-width="1.56684" stroke-miterlimit="10" stroke-linecap="round" stroke-linejoin="round"/>
<path d="M147.146 91.2126C149.245 89.6079 148.379 84.9493 145.212 80.8074C142.045 76.6655 137.777 74.6087 135.678 76.2135C133.579 77.8182 134.445 82.4768 137.612 86.6187C140.779 90.7606 145.047 92.8174 147.146 91.2126Z" fill="white" stroke="#272726" stroke-width="1.56684" stroke-miterlimit="10" stroke-linecap="round" stroke-linejoin="round"/>
<path d="M132.009 71.6697C133.762 71.6697 135.184 70.2482 135.184 68.4947C135.184 66.7411 133.762 65.3196 132.009 65.3196C130.255 65.3196 128.834 66.7411 128.834 68.4947C128.834 70.2482 130.255 71.6697 132.009 71.6697Z" fill="white" stroke="#272726" stroke-width="1.56684" stroke-miterlimit="10" stroke-linecap="round" stroke-linejoin="round"/>
<path d="M149.069 80.3484C150.823 80.3484 152.244 78.9269 152.244 77.1734C152.244 75.4198 150.823 73.9983 149.069 73.9983C147.316 73.9983 145.894 75.4198 145.894 77.1734C145.894 78.9269 147.316 80.3484 149.069 80.3484Z" fill="white" stroke="#272726" stroke-width="1.56684" stroke-miterlimit="10" stroke-linecap="round" stroke-linejoin="round"/>
</svg>
