<svg xmlns="http://www.w3.org/2000/svg" width="210" height="69" viewBox="0 0 210 69">
    <g fill="none" fill-rule="nonzero">
        <path fill="#00A082" d="M.383 44.811v-.127c0-13.035 9.968-24.067 24.025-24.067 6.986 0 11.629 1.66 15.888 4.728a4.138 4.138 0 0 1 1.661 3.322 4.045 4.045 0 0 1-4.046 4.047c-1.065 0-1.874-.469-2.513-.937-2.982-2.173-6.262-3.663-11.288-3.663-8.605 0-15.122 7.54-15.122 16.442v.128c0 9.584 6.304 16.655 15.846 16.655 4.387 0 8.391-1.406 11.245-3.536v-8.732h-9.2c-2.003 0-3.664-1.533-3.664-3.536 0-2.002 1.661-3.578 3.663-3.578H39.87c2.343 0 4.132 1.79 4.132 4.132v12.438c0 2.343-.937 4.004-2.854 5.197-4.004 2.684-9.584 5.07-16.57 5.07C9.968 68.75.383 58.356.383 44.81M51.286 23.045a3.973 3.973 0 0 1 4.004-4.004c2.258 0 4.047 1.789 4.047 4.004v41.233c0 2.257-1.79 4.004-4.047 4.004a3.973 3.973 0 0 1-4.004-4.004V23.045zM65.598 50.604v-.127c0-10.053 7.966-18.36 18.743-18.36 10.777 0 18.7 8.18 18.7 18.232v.128c0 9.967-7.966 18.316-18.828 18.316-10.692-.042-18.615-8.221-18.615-18.189m29.392 0v-.127c0-6.177-4.473-11.331-10.777-11.331-6.475 0-10.564 5.069-10.564 11.16v.128c0 6.134 4.473 11.246 10.692 11.246 6.517.042 10.649-5.027 10.649-11.076M123.146 68.623h-.383c-2.215 0-3.664-1.406-4.6-3.536l-11.715-26.793c-.213-.596-.468-1.278-.468-2.002 0-2.002 1.789-3.876 4.004-3.876s3.322 1.278 4.004 2.939l9.03 23.3 9.201-23.428c.596-1.405 1.661-2.811 3.791-2.811 2.215 0 3.919 1.661 3.919 3.876 0 .724-.256 1.534-.469 1.917l-11.714 26.878c-.937 2.087-2.385 3.536-4.6 3.536M142.868 50.604v-.127c0-10.053 7.966-18.36 18.743-18.36 10.776 0 18.7 8.18 18.7 18.232v.128c0 9.967-7.966 18.316-18.828 18.316-10.735-.042-18.615-8.221-18.615-18.189m29.392 0v-.127c0-6.177-4.473-11.331-10.777-11.331-6.475 0-10.564 5.069-10.564 11.16v.128c0 6.134 4.472 11.246 10.734 11.246 6.475.042 10.607-5.027 10.607-11.076"/>
        <path fill="#FFCC1B" d="M193.77.213c-8.731 0-15.802 7.071-15.802 15.803 0 3.323 1.022 6.517 2.981 9.201l.426.596 8.221 11.63s1.023 1.66 3.195 1.66H194.793c2.173 0 3.195-1.66 3.195-1.66l8.22-11.63.427-.596c1.96-2.726 2.982-5.878 2.982-9.2C209.574 7.283 202.503.212 193.77.212m6.517 20.489l-.426.596-6.049 8.562-6.09-8.562-.427-.639c-.98-1.405-1.533-2.982-1.533-4.685a7.999 7.999 0 0 1 8.008-8.008 7.999 7.999 0 0 1 8.008 8.008 8.193 8.193 0 0 1-1.491 4.728M189.34 46.217c0-2.385 1.875-4.345 4.388-4.345 2.556 0 4.388 1.917 4.388 4.302v.043c0 2.343-1.875 4.302-4.43 4.302-2.514-.042-4.345-1.96-4.345-4.302"/>
    </g>
</svg>
