<svg width="100%" height="100%" viewBox="0 0 40 40" fill="none" xmlns="http://www.w3.org/2000/svg">
<g filter="url(#filter0_d_1094_22827)">
<path d="M29.374 32.3526C33.725 29.3985 38.0671 25.5568 38.8985 20.9706C39.7217 16.3747 37.0327 11.0524 33.2485 7.11276C29.4643 3.17307 24.6014 0.635568 19.4554 0.104815C14.3184 -0.425199 8.90658 1.06136 5.54967 4.41679C2.20179 7.77296 0.909567 12.9889 0.953215 17.8752C0.987835 22.7609 2.35004 27.307 5.14023 30.8454C7.92214 34.3739 12.123 36.8938 16.4029 37.1251C20.6829 37.3564 25.0231 35.3067 29.374 32.3526Z" fill="#FFDE99"/>
</g>
<path fill-rule="evenodd" clip-rule="evenodd" d="M16.1321 13.4816C16.1321 11.9078 17.408 10.6319 18.9818 10.6319C20.5557 10.6319 21.8315 11.9078 21.8315 13.4816C21.8315 15.0555 20.5557 16.3313 18.9818 16.3313C17.408 16.3313 16.1321 15.0555 16.1321 13.4816ZM18.9818 8.81372C16.4038 8.81372 14.3139 10.9036 14.3139 13.4816C14.3139 16.0596 16.4038 18.1495 18.9818 18.1495C21.5598 18.1495 23.6497 16.0596 23.6497 13.4816C23.6497 10.9036 21.5598 8.81372 18.9818 8.81372ZM15.3102 19.6933C15.7162 19.398 15.806 18.8294 15.5107 18.4233C15.2154 18.0173 14.6468 17.9275 14.2408 18.2228C13.3036 18.9044 11.9496 20.1378 11.5382 22.6707C11.3454 23.8575 12.1629 25.1444 13.5806 25.1444H13.5852H13.5901H13.5951H13.6003H13.6057H13.6114H13.6172H13.6232H13.6294H13.6359H13.6425H13.6493H13.6563H13.6635H13.6708H13.6784H13.6862H13.6941H13.7023H13.7106H13.7191H13.7278H13.7367H13.7458H13.7551H13.7645H13.7741H13.7839H13.7939H13.8041H13.8144H13.8249H13.8356H13.8465H13.8575H13.8687H13.8801H13.8917H13.9034H13.9153H13.9274H13.9397H13.9521H13.9647H13.9774H13.9903H14.0034H14.0167H14.0301H14.0437H14.0574H14.0713H14.0854H14.0996H14.114H14.1285H14.1432H14.158H14.173H14.1882H14.2035H14.219H14.2346H14.2503H14.2662H14.2823H14.2985H14.3149H14.3314H14.3481H14.3649H14.3818H14.3989H14.4161H14.4335H14.451H14.4687H14.4865H14.5044H14.5225H14.5407H14.559H14.5775H14.5961H14.6149H14.6338H14.6528H14.6719H14.6912H14.7106H14.7301H14.7498H14.7696H14.7895H14.8095H14.8297H14.85H14.8704H14.8909H14.9116H14.9324H14.9533H14.9743H14.9954H15.0167H15.038H15.0595H15.0811H15.1028H15.1246H15.1466H15.1686H15.1908H15.2131H15.2354H15.2579H15.2805H15.3032H15.326H15.3489H15.3719H15.395H15.4183H15.4416H15.465H15.4885H15.5121H15.5359H15.5597H15.5836H15.6076H15.6317H15.6559H15.6802H15.7046H15.729H15.7536H15.7782H15.803H15.8278H15.8527H15.8777H15.9028H15.928H15.9533H15.9786H16.004H16.0295H16.0551H16.0808H16.1065H16.1323H16.1582H16.1842H16.2103H16.2364H16.2626H16.2889H16.3152H16.3416H16.3681H16.3947H16.4213H16.448H16.4748H16.5016H16.5285H16.5555H16.5825H16.6096H16.6367H16.6639H16.6912H16.7186H16.7459H16.7734H16.8009H16.8285H16.8561H16.8838H16.9115H16.9393H16.9671H16.995H17.0229H17.0509H17.079H17.1071H17.1352H17.1634H17.1916H17.2199H17.2482H17.2765H17.3049H17.3334H17.3619H17.3904H17.419H17.4476H17.4762H17.5049H17.5336H17.5623H17.5911H17.6199H17.6488H17.6777H17.7066H17.7355H17.7645H17.7935H17.8225H17.8516H17.8806H17.9097H17.9389H17.968H17.9972H18.0264H18.0556H18.0849H18.1141H18.1434H18.1727H18.202H18.2313H18.2607H18.29H18.3194H18.3488H18.3782H18.4076H18.437H18.4664H18.4958H18.5253H18.5547H18.5842H18.6136H18.6431H18.6726H18.702H18.7315H18.761H18.7905H18.8199H18.8494H18.8789H18.9083H18.9378H18.9673H18.9967H19.0262H19.0556H19.085H19.1144H19.1439H19.1733H19.2027H19.232H19.2614H19.2907H19.3201H19.3494H19.3787H19.408H19.4373H19.4665H19.4958H19.525H19.5542H19.5833H19.6125H19.6416H19.6707H19.6998H19.7288H19.7578H19.7868H19.8158H19.8447H19.8736H19.9025H19.9313H19.9601H19.9889H20.0176H20.0463H20.075H20.1036H20.1322H20.1608H20.1893H20.2177H20.2462H20.2746H20.3029H20.3312H20.3595H20.3877H20.4159H20.444H20.472H20.5001H20.528H20.556H20.5838H20.6117H20.6394H20.6671H20.6948H20.7224H20.7499H20.7774H20.8049H20.8322H20.8596H20.8868H20.914H20.9411H20.9682H20.9952H21.0222H21.049H21.0758H21.1026H21.1293H21.1559H21.1824H21.2089H21.2353H21.2616H21.2879H21.314H21.3401H21.3662H21.3921H21.418H21.4438H21.4695H21.4952H21.5207H21.5462H21.5716H21.5969H21.6221H21.6473H21.6724H21.6973H21.7222H21.747H21.7717H21.7964H21.8209H21.8453H21.8697H21.894H21.9181H21.9422H21.9662H21.9901H22.0138H22.0375H22.0611H22.0846H22.108H22.1313H22.1545H22.1776H22.2005H22.2234H22.2462H22.2688H22.2914H22.3139H22.3362H22.3584H22.3806H22.4026H22.4245H22.4463H22.4679H22.4895H22.5109H22.5323H22.5535H22.5746H22.5956H22.6164H22.6372H22.6578H22.6783H22.6987H22.7189H22.739H22.759H22.7789H22.7987H22.8183H22.8378H22.8572H22.8764H22.8955H22.9145H22.9333H22.952H22.9706H22.989H23.0073H23.0255H23.0435H23.0614H23.0792H23.0968H23.1143H23.1316H23.1488H23.1658H23.1827H23.1995H23.2161H23.2326H23.2489H23.2651H23.2811H23.2969H23.3127H23.3282H23.3437H23.3589H23.374H23.389H23.4038H23.4184H23.4329H23.4472H23.4614H23.4754H23.4893H23.5029H23.5165H23.5298H23.543H23.5561H23.5689H23.5816H23.5942H23.6065H23.6187H23.6308H23.6426H23.6543H23.6658H23.6772H23.6883H23.6993H23.7101H23.7208H23.7312H23.7415H23.7516H23.7616H23.7713H23.7809H23.7902H23.7994H23.8085H23.8173H23.8259H23.8344H23.8427H23.8508H23.8587H23.8664H23.8739H23.8812H23.8883H23.8953H23.902H23.9086H23.9149H23.9211H23.9271H23.9328H23.9384H23.9438H23.9489H23.9539H23.9587H23.9632H23.9676H23.9717H23.9757H23.9794H23.983H23.9863H23.9894H23.9923H23.995H23.9975H23.9998H24.0018H24.0037H24.0053H24.0067H24.0079H24.0089H24.0097H24.0102H24.0106C24.0106 25.1444 24.0107 25.1444 24.0107 24.2353V25.1444C24.8978 25.1444 25.6158 24.7325 26.0559 24.0124C26.2846 23.6382 26.3856 23.2826 26.412 22.9593C26.434 22.6905 26.3993 22.4531 26.385 22.3553L26.3808 22.3254C26.2748 21.5129 25.5789 19.7386 23.7649 18.2544C23.3763 17.9365 22.8036 17.9938 22.4856 18.3824C22.1677 18.771 22.225 19.3437 22.6135 19.6616C24.0854 20.8659 24.5345 22.2281 24.5779 22.5606L24.5868 22.6277L24.5868 22.6277C24.5999 22.726 24.6042 22.758 24.5999 22.8112C24.5964 22.8542 24.5833 22.9352 24.5045 23.0643C24.3969 23.2403 24.2686 23.3262 24.0107 23.3262V24.2353C24.0107 23.3262 24.0106 23.3262 24.0106 23.3262H24.0102H24.0097H24.0089H24.0079H24.0067H24.0053H24.0037H24.0018H23.9998H23.9975H23.995H23.9923H23.9894H23.9863H23.983H23.9794H23.9757H23.9717H23.9676H23.9632H23.9587H23.9539H23.9489H23.9438H23.9384H23.9328H23.9271H23.9211H23.9149H23.9086H23.902H23.8953H23.8883H23.8812H23.8739H23.8664H23.8587H23.8508H23.8427H23.8344H23.8259H23.8173H23.8085H23.7994H23.7902H23.7809H23.7713H23.7616H23.7516H23.7415H23.7312H23.7208H23.7101H23.6993H23.6883H23.6772H23.6658H23.6543H23.6426H23.6308H23.6187H23.6065H23.5942H23.5816H23.5689H23.5561H23.543H23.5298H23.5165H23.5029H23.4893H23.4754H23.4614H23.4472H23.4329H23.4184H23.4038H23.389H23.374H23.3589H23.3437H23.3282H23.3127H23.2969H23.2811H23.2651H23.2489H23.2326H23.2161H23.1995H23.1827H23.1658H23.1488H23.1316H23.1143H23.0968H23.0792H23.0614H23.0435H23.0255H23.0073H22.989H22.9706H22.952H22.9333H22.9145H22.8955H22.8764H22.8572H22.8378H22.8183H22.7987H22.7789H22.759H22.739H22.7189H22.6987H22.6783H22.6578H22.6372H22.6164H22.5956H22.5746H22.5535H22.5323H22.5109H22.4895H22.4679H22.4463H22.4245H22.4026H22.3806H22.3584H22.3362H22.3139H22.2914H22.2688H22.2462H22.2234H22.2005H22.1776H22.1545H22.1313H22.108H22.0846H22.0611H22.0375H22.0138H21.9901H21.9662H21.9422H21.9181H21.894H21.8697H21.8453H21.8209H21.7964H21.7717H21.747H21.7222H21.6973H21.6724H21.6473H21.6221H21.5969H21.5716H21.5462H21.5207H21.4952H21.4695H21.4438H21.418H21.3921H21.3662H21.3401H21.314H21.2879H21.2616H21.2353H21.2089H21.1824H21.1559H21.1293H21.1026H21.0758H21.049H21.0222H20.9952H20.9682H20.9411H20.914H20.8868H20.8596H20.8322H20.8049H20.7774H20.7499H20.7224H20.6948H20.6671H20.6394H20.6117H20.5838H20.556H20.528H20.5001H20.472H20.444H20.4159H20.3877H20.3595H20.3312H20.3029H20.2746H20.2462H20.2177H20.1893H20.1608H20.1322H20.1036H20.075H20.0463H20.0176H19.9889H19.9601H19.9313H19.9025H19.8736H19.8447H19.8158H19.7868H19.7578H19.7288H19.6998H19.6707H19.6416H19.6125H19.5833H19.5542H19.525H19.4958H19.4665H19.4373H19.408H19.3787H19.3494H19.3201H19.2907H19.2614H19.232H19.2027H19.1733H19.1439H19.1144H19.085H19.0556H19.0262H18.9967H18.9673H18.9378H18.9083H18.8789H18.8494H18.8199H18.7905H18.761H18.7315H18.702H18.6726H18.6431H18.6136H18.5842H18.5547H18.5253H18.4958H18.4664H18.437H18.4076H18.3782H18.3488H18.3194H18.29H18.2607H18.2313H18.202H18.1727H18.1434H18.1141H18.0849H18.0556H18.0264H17.9972H17.968H17.9389H17.9097H17.8806H17.8516H17.8225H17.7935H17.7645H17.7355H17.7066H17.6777H17.6488H17.6199H17.5911H17.5623H17.5336H17.5049H17.4762H17.4476H17.419H17.3904H17.3619H17.3334H17.3049H17.2765H17.2482H17.2199H17.1916H17.1634H17.1352H17.1071H17.079H17.0509H17.0229H16.995H16.9671H16.9393H16.9115H16.8838H16.8561H16.8285H16.8009H16.7734H16.7459H16.7186H16.6912H16.6639H16.6367H16.6096H16.5825H16.5555H16.5285H16.5016H16.4748H16.448H16.4213H16.3947H16.3681H16.3416H16.3152H16.2889H16.2626H16.2364H16.2103H16.1842H16.1582H16.1323H16.1065H16.0808H16.0551H16.0295H16.004H15.9786H15.9533H15.928H15.9028H15.8777H15.8527H15.8278H15.803H15.7782H15.7536H15.729H15.7046H15.6802H15.6559H15.6317H15.6076H15.5836H15.5597H15.5359H15.5121H15.4885H15.465H15.4416H15.4183H15.395H15.3719H15.3489H15.326H15.3032H15.2805H15.2579H15.2354H15.2131H15.1908H15.1686H15.1466H15.1246H15.1028H15.0811H15.0595H15.038H15.0167H14.9954H14.9743H14.9533H14.9324H14.9116H14.8909H14.8704H14.85H14.8297H14.8095H14.7895H14.7696H14.7498H14.7301H14.7106H14.6912H14.6719H14.6528H14.6338H14.6149H14.5961H14.5775H14.559H14.5407H14.5225H14.5044H14.4865H14.4687H14.451H14.4335H14.4161H14.3989H14.3818H14.3649H14.3481H14.3314H14.3149H14.2985H14.2823H14.2662H14.2503H14.2346H14.219H14.2035H14.1882H14.173H14.158H14.1432H14.1285H14.114H14.0996H14.0854H14.0713H14.0574H14.0437H14.0301H14.0167H14.0034H13.9903H13.9774H13.9647H13.9521H13.9397H13.9274H13.9153H13.9034H13.8917H13.8801H13.8687H13.8575H13.8465H13.8356H13.8249H13.8144H13.8041H13.7939H13.7839H13.7741H13.7645H13.7551H13.7458H13.7367H13.7278H13.7191H13.7106H13.7023H13.6941H13.6862H13.6784H13.6708H13.6635H13.6563H13.6493H13.6425H13.6359H13.6294H13.6232H13.6172H13.6114H13.6057H13.6003H13.5951H13.5901H13.5852H13.5806C13.488 23.3262 13.4336 23.2918 13.394 23.2406C13.347 23.1798 13.3137 23.0804 13.3329 22.9622C13.6412 21.0642 14.6044 20.2065 15.3102 19.6933Z" fill="#292929"/>
<defs>
<filter id="filter0_d_1094_22827" x="0.952148" y="0" width="38.0952" height="38.961" filterUnits="userSpaceOnUse" color-interpolation-filters="sRGB">
<feFlood flood-opacity="0" result="BackgroundImageFix"/>
<feColorMatrix in="SourceAlpha" type="matrix" values="0 0 0 0 0 0 0 0 0 0 0 0 0 0 0 0 0 0 127 0" result="hardAlpha"/>
<feOffset dy="1.81818"/>
<feColorMatrix type="matrix" values="0 0 0 0 0.882353 0 0 0 0 0.623529 0 0 0 0 0.0901961 0 0 0 0.5 0"/>
<feBlend mode="normal" in2="BackgroundImageFix" result="effect1_dropShadow_1094_22827"/>
<feBlend mode="normal" in="SourceGraphic" in2="effect1_dropShadow_1094_22827" result="shape"/>
</filter>
</defs>
</svg>
