<svg width="172" height="136" viewBox="0 0 172 136" fill="none" xmlns="http://www.w3.org/2000/svg">
<path d="M170.162 91.1833C168.133 84.5539 164.299 78.7814 160.105 73.4147C152.935 64.2598 149.552 57.901 147.388 46.3109C141.209 13.209 106.709 -5.77722 74.3741 1.57374C35.9507 10.2776 21.6998 51.1363 39.3331 84.5088C57.6428 119.144 98.5015 137.364 136.429 135.92C136.97 135.92 137.421 135.785 137.917 135.695C145.494 136.101 152.89 134.522 159.699 128.885C170.433 120.046 174.176 104.352 170.162 91.1833Z" fill="#FFC244"/>
<path d="M143.599 67.2362L108.288 74.2715V19.9285L143.825 30.0304C145.899 30.4363 147.388 32.2402 147.388 34.3598V62.8617C147.388 65.0715 145.764 66.9205 143.599 67.2362Z" fill="white" stroke="#222221" stroke-width="1.66552" stroke-miterlimit="10" stroke-linecap="round" stroke-linejoin="round"/>
<path d="M119.021 36.8403L136.654 41.8913V52.805L119.021 56.3226V36.8403Z" fill="white" stroke="#222221" stroke-width="1.66552" stroke-miterlimit="10" stroke-linecap="round" stroke-linejoin="round"/>
<path d="M72.9763 67.2362L108.288 74.2715V19.9285L72.7508 26.2873C70.6763 26.6932 69.1881 28.4971 69.1881 30.6167V62.9068C69.143 65.0715 70.7665 66.9205 72.9763 67.2362Z" fill="white" stroke="#222221" stroke-width="1.66552" stroke-miterlimit="10" stroke-linecap="round" stroke-linejoin="round"/>
<path d="M81.3644 68.6797L94.3075 71.2503V53.3464C94.3075 52.219 93.4055 51.2719 92.233 51.2268L81.2291 50.9111C80.4624 51.0464 79.9213 51.7229 79.9213 52.4896V67.0562C79.9664 67.913 80.5526 68.5895 81.3644 68.6797Z" fill="white" stroke="#222221" stroke-width="1.66552" stroke-miterlimit="10" stroke-linecap="round" stroke-linejoin="round"/>
<path d="M71.6683 25.2504L57.1919 40.9896L67.1585 40.5837L80.8232 23.8975L71.6683 25.2504Z" fill="#FFC244" stroke="#222221" stroke-width="1.66552" stroke-miterlimit="10" stroke-linecap="round" stroke-linejoin="round"/>
<path d="M80.8232 23.8974L67.1586 40.5837L77.2154 40.1778L89.9781 22.5896L80.8232 23.8974Z" fill="white" stroke="#222221" stroke-width="1.66552" stroke-miterlimit="10" stroke-linecap="round" stroke-linejoin="round"/>
<path d="M108.288 19.9287L99.133 21.2366L87.137 39.8169L97.3742 39.3659L108.288 19.9287Z" fill="white" stroke="#222221" stroke-width="1.66552" stroke-miterlimit="10" stroke-linecap="round" stroke-linejoin="round"/>
<path d="M89.9782 22.5895L77.2155 40.1777L87.137 39.8169L99.133 21.2366L89.9782 22.5895Z" fill="#FFC244" stroke="#222221" stroke-width="1.66552" stroke-miterlimit="10" stroke-linecap="round" stroke-linejoin="round"/>
<path d="M103.913 3.87365L74.9153 10.3226C73.0662 10.5932 71.6682 12.1717 71.6682 14.0658V25.2952L108.243 19.8834V7.61678C108.288 5.31678 106.213 3.55796 103.913 3.87365Z" fill="white" stroke="#222221" stroke-width="1.66552" stroke-miterlimit="10" stroke-linecap="round" stroke-linejoin="round"/>
<path d="M137.376 81.6677C136.113 81.6677 135.076 80.6304 135.076 79.3677V72.4677C135.076 72.3324 134.986 72.2422 134.851 72.2422C134.76 72.2422 134.67 72.2422 134.58 72.2422L126.643 71.2501C126.552 71.2952 126.462 71.3854 126.462 71.4755V78.4657C126.462 79.7285 125.425 80.7657 124.162 80.7657C122.9 80.7657 121.862 79.7285 121.862 78.4657V71.4755C121.862 68.8148 124.027 66.605 126.733 66.605C126.823 66.605 126.913 66.605 127.003 66.605L135.031 67.6422C137.647 67.7324 139.721 69.8971 139.721 72.5128V79.4128C139.721 80.6304 138.684 81.6677 137.376 81.6677Z" fill="#FFC244" stroke="#222221" stroke-width="1.66552" stroke-miterlimit="10" stroke-linecap="round" stroke-linejoin="round"/>
<path d="M150.364 80.4498C149.101 80.4498 148.064 79.4125 148.064 78.1498V71.2498C148.064 71.1145 147.974 71.0243 147.839 71.0243C147.748 71.0243 147.658 71.0243 147.568 71.0243L139.631 70.0322C139.541 70.0773 139.45 70.1674 139.45 70.2576V77.1576C139.45 78.4204 138.413 79.4576 137.15 79.4576C135.888 79.4576 134.85 78.4204 134.85 77.1576V70.1675C134.85 67.5067 137.015 65.2969 139.721 65.2969C139.811 65.2969 139.901 65.2969 139.992 65.2969L148.019 66.3341C150.635 66.4243 152.709 68.589 152.709 71.2047V78.1047C152.664 79.4125 151.627 80.4498 150.364 80.4498Z" fill="#FFC244" stroke="#222221" stroke-width="1.66552" stroke-miterlimit="10" stroke-linecap="round" stroke-linejoin="round"/>
<path d="M163.984 126.946L126.192 130.554L127.996 75.6697L161.278 78.8265L163.984 126.946Z" fill="white" stroke="#222221" stroke-width="1.66552" stroke-miterlimit="10" stroke-linecap="round" stroke-linejoin="round"/>
<path d="M126.192 130.554L111.129 125.773L115.323 79.2775L127.996 75.6697L126.192 130.554Z" fill="white" stroke="#222221" stroke-width="1.66552" stroke-miterlimit="10" stroke-linecap="round" stroke-linejoin="round"/>
<path d="M63.2801 129.066C63.8664 132.538 69.4134 134.522 75.682 133.53C81.9506 132.493 86.5957 128.84 86.0546 125.368L84.2506 114.273L61.4762 117.971L63.2801 129.066Z" fill="white" stroke="#222221" stroke-width="1.66552" stroke-miterlimit="10" stroke-linecap="round" stroke-linejoin="round"/>
<path d="M71.3525 106.922C54.4408 109.673 39.6486 105.975 37.4388 98.6243C37.4839 99.2557 37.5741 99.9321 37.7094 100.564C40.5506 118.107 57.1015 130.058 74.6897 127.171C92.2328 124.33 104.184 107.779 101.297 90.191C101.207 89.5596 101.072 88.9282 100.937 88.2969C101.162 95.9635 88.3093 104.171 71.3525 106.922Z" fill="white" stroke="#222221" stroke-width="1.66552" stroke-miterlimit="10" stroke-linecap="round" stroke-linejoin="round"/>
<path d="M100.847 87.44C100.711 86.6734 100.441 85.9067 100.08 85.2302C100.396 86.2224 100.711 87.2596 100.937 88.342C100.892 88.0263 100.892 87.7106 100.847 87.44Z" fill="white" stroke="#222221" stroke-width="1.66552" stroke-miterlimit="10" stroke-linecap="round" stroke-linejoin="round"/>
<path d="M37.2584 97.7675C37.3035 98.038 37.3937 98.3537 37.4839 98.6243C37.3937 97.542 37.3035 96.4596 37.3035 95.4224C37.1231 96.189 37.1231 97.0008 37.2584 97.7675Z" fill="white" stroke="#222221" stroke-width="1.66552" stroke-miterlimit="10" stroke-linecap="round" stroke-linejoin="round"/>
<path d="M71.3526 106.922C88.2643 104.171 101.117 95.9636 100.892 88.297C100.666 87.2597 100.351 86.2225 100.035 85.1852C96.4721 78.7362 82.5368 75.6696 66.7075 78.2402C50.8781 80.8107 38.6115 88.1617 37.2585 95.3774C37.2585 96.4597 37.3036 97.497 37.4389 98.5793C39.6487 105.975 54.4409 109.673 71.3526 106.922Z" fill="white" stroke="#222221" stroke-width="1.66552" stroke-miterlimit="10" stroke-linecap="round" stroke-linejoin="round"/>
<path d="M71.3525 106.922C54.4408 109.673 39.6486 105.975 37.4388 98.6243C37.4839 99.2557 37.5741 99.9321 37.7094 100.564C40.5506 118.107 57.1015 130.058 74.6897 127.171C92.2328 124.33 104.184 107.779 101.297 90.191C101.207 89.5596 101.072 88.9282 100.937 88.2969C101.162 95.9635 88.3093 104.171 71.3525 106.922Z" stroke="#222221" stroke-width="1.66552" stroke-miterlimit="10" stroke-linecap="round" stroke-linejoin="round"/>
<path d="M81.3643 75.6246C75.7271 72.4226 66.8879 77.3383 61.6115 86.6285C58.4095 92.2657 60.3487 99.3912 65.986 102.593C71.6232 105.795 78.7487 103.856 81.9506 98.2186C87.2271 88.9285 87.0016 78.8266 81.3643 75.6246Z" fill="white" stroke="#222221" stroke-width="1.66552" stroke-miterlimit="10" stroke-linecap="round" stroke-linejoin="round"/>
<path d="M71.5332 98.8952C74.8458 98.8952 77.5312 96.2098 77.5312 92.8972C77.5312 89.5846 74.8458 86.8992 71.5332 86.8992C68.2206 86.8992 65.5352 89.5846 65.5352 92.8972C65.5352 96.2098 68.2206 98.8952 71.5332 98.8952Z" fill="#FFC244" stroke="#222221" stroke-width="1.66552" stroke-miterlimit="10" stroke-linecap="round" stroke-linejoin="round"/>
<path d="M96.7428 77.6991C91.1056 74.4971 82.2664 79.4128 76.99 88.703C73.9233 94.1147 75.5919 100.879 80.688 104.262C80.9135 104.397 81.139 104.532 81.3194 104.668C86.9566 107.87 94.0821 105.93 97.284 100.293C97.8252 99.3461 98.2762 98.4441 98.682 97.497C102.515 89.0637 101.794 80.5853 96.7428 77.6991Z" fill="white" stroke="#222221" stroke-width="1.66552" stroke-miterlimit="10" stroke-linecap="round" stroke-linejoin="round"/>
<path d="M86.9115 100.969C90.2241 100.969 92.9095 98.284 92.9095 94.9714C92.9095 91.6588 90.2241 88.9734 86.9115 88.9734C83.5989 88.9734 80.9135 91.6588 80.9135 94.9714C80.9135 98.284 83.5989 100.969 86.9115 100.969Z" fill="#FFC244" stroke="#222221" stroke-width="1.66552" stroke-miterlimit="10" stroke-linecap="round" stroke-linejoin="round"/>
<path d="M37.4391 98.6245C39.6489 105.976 54.441 109.674 71.3527 106.923C88.2644 104.172 101.117 95.9638 100.892 88.2971" stroke="#222221" stroke-width="1.66552" stroke-miterlimit="10" stroke-linecap="round" stroke-linejoin="round"/>
<path d="M50.6527 106.967C50.6527 106.967 48.1723 103.134 51.9605 100.654C55.7487 98.1733 60.3036 94.9263 60.3036 94.9263L55.7487 98.1282" stroke="#222221" stroke-width="1.66552" stroke-miterlimit="10" stroke-linecap="round" stroke-linejoin="round"/>
<path d="M39.5587 101.961C39.5587 101.961 38.0704 98.6693 42.49 96.189C46.9096 93.7086 53.539 89.8752 53.539 89.8752C53.539 89.8752 57.7782 87.3047 60.3037 90.4164" stroke="#222221" stroke-width="1.66552" stroke-miterlimit="10" stroke-linecap="round" stroke-linejoin="round"/>
<path d="M43.0312 95.5126C42.6253 92.942 45.7822 92.4459 45.3763 89.8753C44.9704 87.3047 41.8136 87.8459 41.3626 85.2753C40.9567 82.7048 44.1136 82.2087 43.7077 79.6381C43.3018 77.0675 40.1449 77.6087 39.694 75.0381C39.2881 72.4675 42.4449 71.9715 42.0391 69.4009" stroke="#222221" stroke-width="1.66552" stroke-miterlimit="10" stroke-linecap="round" stroke-linejoin="round"/>
<path d="M53.9901 88.3421C53.5842 85.7715 50.4273 86.3127 49.9764 83.7421C49.5705 81.1716 52.7273 80.6755 52.3214 78.1049C51.9156 75.5343 48.7587 76.0755 48.3077 73.5049C47.9018 70.9343 51.0587 70.4383 50.6528 67.8677" stroke="#222221" stroke-width="1.66552" stroke-miterlimit="10" stroke-linecap="round" stroke-linejoin="round"/>
<path d="M55.5233 68.7695L6.90775 78.3754C5.19403 78.7362 3.5254 77.6087 3.16462 75.8499C2.80384 74.1362 3.93129 72.4676 5.6901 72.1068C5.7352 72.1068 5.8254 72.0617 5.8705 72.0617L54.9821 65.4323C55.9292 65.297 56.786 65.9735 56.8762 66.8754C57.0115 67.7774 56.4252 68.6343 55.5233 68.7695Z" fill="white" stroke="#222221" stroke-width="1.66552" stroke-miterlimit="10" stroke-linecap="round" stroke-linejoin="round"/>
<path d="M53.7645 62.4558L4.20195 62.6813C2.44313 62.6813 1 61.2833 1 59.5245C1 57.7656 2.39804 56.3225 4.15685 56.3225C4.20195 56.3225 4.29215 56.3225 4.33725 56.3225L53.8096 59.0735C54.7567 59.1186 55.4783 59.9303 55.4332 60.8774C55.3881 61.7343 54.6214 62.4558 53.7645 62.4558Z" fill="white" stroke="#222221" stroke-width="1.66552" stroke-miterlimit="10" stroke-linecap="round" stroke-linejoin="round"/>
<path d="M144.186 23.8971L145.99 17.2227" stroke="#222221" stroke-width="1.66552" stroke-miterlimit="10" stroke-linecap="round" stroke-linejoin="round"/>
<path d="M151.807 29.3992L160.962 23.9424" stroke="#222221" stroke-width="1.66552" stroke-miterlimit="10" stroke-linecap="round" stroke-linejoin="round"/>
<path d="M153.386 38.6895L159.97 41.0796" stroke="#222221" stroke-width="1.66552" stroke-miterlimit="10" stroke-linecap="round" stroke-linejoin="round"/>
<path d="M71.3527 106.923C54.441 109.674 39.6489 105.976 37.4391 98.6245C37.4842 99.2559 37.5744 99.9324 37.7097 100.564C40.5508 118.107 57.1018 130.058 74.69 127.172C92.233 124.33 104.184 107.779 101.298 90.1912C101.208 89.5599 101.072 88.9285 100.937 88.2971C101.162 95.9638 88.3095 104.172 71.3527 106.923Z" fill="white" stroke="#222221" stroke-width="1.66552" stroke-miterlimit="10" stroke-linecap="round" stroke-linejoin="round"/>
<path d="M99.3585 105.93C99.629 105.029 99.9447 104.127 100.17 103.225C99.8545 103.225 99.5389 103.315 99.2232 103.54C90.384 109.629 81.5448 113.958 72.7507 115.401C63.8664 116.844 54.0802 115.491 43.7076 112.515C43.1665 112.334 42.5802 112.47 42.1743 112.83V112.876C42.5802 113.778 42.8508 114.048 43.5273 114.77C44.0233 115.311 44.5194 115.852 44.9704 116.438C54.9821 119.099 64.4978 120.227 73.2468 118.783C81.6801 117.43 90.1134 113.552 98.5467 108.05C98.8173 107.283 99.133 106.607 99.3585 105.93Z" fill="#FFC244"/>
<path d="M71.3527 106.923C54.441 109.674 39.6489 105.976 37.4391 98.6245C37.4842 99.2559 37.5744 99.9324 37.7097 100.564C40.5508 118.107 57.1018 130.058 74.69 127.172C92.233 124.33 104.184 107.779 101.298 90.1912C101.208 89.5599 101.072 88.9285 100.937 88.2971C101.162 95.9638 88.3095 104.172 71.3527 106.923Z" stroke="#222221" stroke-width="1.66552" stroke-miterlimit="10" stroke-linecap="round" stroke-linejoin="round"/>
</svg>
