<svg width="121" height="82" viewBox="0 0 121 82" fill="none" xmlns="http://www.w3.org/2000/svg">
<path fill-rule="evenodd" clip-rule="evenodd" d="M53.1838 80.0037C77.8005 73.7788 105 61.5699 105 37.9282C105 14.2865 82.3131 7.11517 58.8556 2.8124C35.398 -1.49037 16 21.9809 16 45.6285C16 69.2761 28.5672 86.2227 53.1838 80.0037Z" fill="#00A082"/>
<path d="M95.5726 36.3148L77.834 18.5762L50.1583 46.2519L67.8969 63.9905L95.5726 36.3148Z" fill="white" stroke="#1A1A1A" stroke-width="2.10416" stroke-linecap="round" stroke-linejoin="round"/>
<path d="M78.9582 53.7219L76.5019 51.2656L67.7237 42.4873L57.0931 31.8568L60.5561 27.7495C58.1401 25.3335 54.516 24.9308 51.6973 26.4609L43.0801 17.8438L22.9062 38.0176L45.013 60.1244L56.2475 71.3589L56.3281 71.4394C57.7374 72.7683 59.9521 72.728 61.2809 71.3589C62.65 69.9898 62.65 67.7751 61.3615 66.406L63.8178 68.8623C65.1868 70.2314 67.4821 70.2314 68.8512 68.8623C70.2203 67.4933 70.2203 65.198 68.8512 63.8289C70.2203 65.198 72.5155 65.198 73.8846 63.8289C75.2537 62.4599 75.2537 60.1646 73.8846 58.7955C75.2537 60.1646 77.5489 60.1646 78.918 58.7955C80.3273 57.3862 80.3273 55.1312 78.9582 53.7219Z" fill="white" stroke="#1A1A1A" stroke-width="2.10416" stroke-linecap="round" stroke-linejoin="round"/>
<path d="M61.321 66.4059L54.3145 59.3994" stroke="#1A1A1A" stroke-width="2.10416" stroke-linecap="round" stroke-linejoin="round"/>
<path d="M69.0526 63.9901L59.4287 54.3662" stroke="#1A1A1A" stroke-width="2.10416" stroke-linecap="round" stroke-linejoin="round"/>
<path d="M74.0858 58.9569L64.4619 49.333" stroke="#1A1A1A" stroke-width="2.10416" stroke-linecap="round" stroke-linejoin="round"/>
<path d="M63.6165 35.1985L59.9924 38.8226C56.7308 42.0842 51.4558 42.0842 48.2344 38.8226L59.3079 27.7491C62.2474 24.8096 67.0609 25.3858 70.0004 28.3253" fill="white"/>
<path d="M63.6165 35.1985L59.9924 38.8226C56.7308 42.0842 51.4558 42.0842 48.2344 38.8226L59.3079 27.7491C62.2474 24.8096 67.0609 25.3858 70.0004 28.3253" stroke="#1A1A1A" stroke-width="2.10416" stroke-linecap="round" stroke-linejoin="round"/>
<path d="M49.7242 70.5134C48.3953 69.1845 48.3953 66.9698 49.7242 65.641L50.0463 65.3189C51.3751 63.9901 53.5898 63.9901 54.9186 65.3189C56.2474 66.6477 56.2474 68.8624 54.9186 70.1912L54.5965 70.5134C53.2677 71.8422 51.053 71.8422 49.7242 70.5134Z" fill="white" stroke="#1A1A1A" stroke-width="2.10416"/>
<path d="M44.8521 65.6413C43.5233 64.3125 43.5233 62.0978 44.8521 60.7689L45.1742 60.4468C46.503 59.118 48.7177 59.118 50.0466 60.4468C51.3754 61.7756 51.3754 63.9903 50.0466 65.3191L49.7244 65.6413C48.3956 66.9701 46.1809 66.9701 44.8521 65.6413Z" fill="white" stroke="#1A1A1A" stroke-width="2.10416"/>
<path d="M35.107 55.8962C33.7781 54.5673 33.7781 52.3527 35.107 51.0238L35.4291 50.7017C36.7579 49.3729 38.9726 49.3729 40.3014 50.7017C41.6303 52.0305 41.6303 54.2452 40.3014 55.574L39.9793 55.8962C38.6102 57.225 36.4358 57.225 35.107 55.8962Z" fill="white" stroke="#1A1A1A" stroke-width="2.10416"/>
<path d="M39.979 60.7682C38.6502 59.4394 38.6502 57.2247 39.979 55.8959L41.5092 54.3658C42.838 53.0369 45.0527 53.0369 46.3815 54.3658C47.7103 55.6946 47.7103 57.9093 46.3815 59.2381L44.8514 60.7682C43.5226 62.0971 41.3079 62.0971 39.979 60.7682Z" fill="white" stroke="#1A1A1A" stroke-width="2.10416"/>
<path d="M43.2574 17.7027L27.8535 2.29883L2.00007 28.1523L17.4039 43.5561L43.2574 17.7027Z" fill="white" stroke="#1A1A1A" stroke-width="2.10416"/>
<path d="M103.675 44.5513L119.079 29.1475L93.2257 3.29401L77.8218 18.6979L103.675 44.5513Z" fill="white" stroke="#1A1A1A" stroke-width="2.10416"/>
<path d="M53.3188 13.8141L51.2062 12.4554" stroke="#1A1A1A" stroke-width="2.10416" stroke-linecap="round" stroke-linejoin="round"/>
<path d="M56.6305 10.861L55.4654 8.58518" stroke="#1A1A1A" stroke-width="2.10416" stroke-linecap="round" stroke-linejoin="round"/>
<path d="M60.9716 9.87091L61.0568 7.38081" stroke="#1A1A1A" stroke-width="2.10416" stroke-linecap="round" stroke-linejoin="round"/>
<path d="M65.2168 11.2373L66.5755 9.12472" stroke="#1A1A1A" stroke-width="2.10416" stroke-linecap="round" stroke-linejoin="round"/>
<path d="M68.1709 14.5488L70.4468 13.3838" stroke="#1A1A1A" stroke-width="2.10416" stroke-linecap="round" stroke-linejoin="round"/>
</svg>
